<mxfile host="app.diagrams.net" modified="2024-03-02T14:25:08.511Z" agent="Mozilla/5.0 (Macintosh; Intel Mac OS X 10_15_7) AppleWebKit/537.36 (KHTML, like Gecko) Chrome/122.0.0.0 Safari/537.36" etag="VAdjkwI4Bbl_CBfBa7Vs" version="24.0.0" type="github">
  <diagram name="Page-1" id="2YBvvXClWsGukQMizWep">
    <mxGraphModel dx="1434" dy="761" grid="1" gridSize="10" guides="1" tooltips="1" connect="1" arrows="1" fold="1" page="1" pageScale="1" pageWidth="850" pageHeight="1100" math="0" shadow="0">
      <root>
        <mxCell id="0" />
        <mxCell id="1" parent="0" />
        <mxCell id="fayem-Z81CMUDDH44z70-9" value="" style="rounded=1;whiteSpace=wrap;html=1;fillColor=none;fontStyle=0;strokeWidth=5;" vertex="1" parent="1">
          <mxGeometry x="50" y="190" width="780" height="250" as="geometry" />
        </mxCell>
        <mxCell id="fayem-Z81CMUDDH44z70-1" value="DB&lt;div style=&quot;font-size: 16px;&quot;&gt;PostgreSQL&lt;/div&gt;" style="rounded=1;whiteSpace=wrap;html=1;strokeWidth=4;fontStyle=1;fontSize=16;" vertex="1" parent="1">
          <mxGeometry x="660" y="290" width="120" height="60" as="geometry" />
        </mxCell>
        <mxCell id="fayem-Z81CMUDDH44z70-2" value="FRONT&lt;br style=&quot;font-size: 15px;&quot;&gt;(Vanilla JS)" style="rounded=1;whiteSpace=wrap;html=1;strokeWidth=4;fontStyle=1;fontSize=15;" vertex="1" parent="1">
          <mxGeometry x="120" y="290" width="120" height="60" as="geometry" />
        </mxCell>
        <mxCell id="fayem-Z81CMUDDH44z70-5" value="BACK&lt;br style=&quot;font-size: 16px;&quot;&gt;(Django)" style="rounded=1;whiteSpace=wrap;html=1;strokeWidth=4;fontSize=16;fontStyle=1" vertex="1" parent="1">
          <mxGeometry x="390" y="290" width="120" height="60" as="geometry" />
        </mxCell>
        <mxCell id="fayem-Z81CMUDDH44z70-14" value="" style="endArrow=classic;html=1;rounded=0;strokeWidth=3;fontSize=8;" edge="1" parent="1">
          <mxGeometry width="50" height="50" relative="1" as="geometry">
            <mxPoint x="160.5" y="120" as="sourcePoint" />
            <mxPoint x="160" y="270" as="targetPoint" />
          </mxGeometry>
        </mxCell>
        <mxCell id="fayem-Z81CMUDDH44z70-17" value="" style="endArrow=classic;startArrow=classic;html=1;rounded=0;" edge="1" parent="1">
          <mxGeometry width="50" height="50" relative="1" as="geometry">
            <mxPoint x="260" y="319.5" as="sourcePoint" />
            <mxPoint x="370" y="319.5" as="targetPoint" />
          </mxGeometry>
        </mxCell>
        <mxCell id="fayem-Z81CMUDDH44z70-18" value="" style="endArrow=classic;startArrow=classic;html=1;rounded=0;" edge="1" parent="1">
          <mxGeometry width="50" height="50" relative="1" as="geometry">
            <mxPoint x="530" y="319.5" as="sourcePoint" />
            <mxPoint x="640" y="319.5" as="targetPoint" />
          </mxGeometry>
        </mxCell>
        <mxCell id="fayem-Z81CMUDDH44z70-22" value="443 (HTTS)" style="text;html=1;align=center;verticalAlign=middle;whiteSpace=wrap;rounded=0;fontStyle=1;fontSize=18;" vertex="1" parent="1">
          <mxGeometry x="170" y="120" width="120" height="30" as="geometry" />
        </mxCell>
        <mxCell id="fayem-Z81CMUDDH44z70-24" style="edgeStyle=orthogonalEdgeStyle;rounded=0;orthogonalLoop=1;jettySize=auto;html=1;exitX=0.5;exitY=1;exitDx=0;exitDy=0;" edge="1" parent="1" source="fayem-Z81CMUDDH44z70-9" target="fayem-Z81CMUDDH44z70-9">
          <mxGeometry relative="1" as="geometry" />
        </mxCell>
        <mxCell id="fayem-Z81CMUDDH44z70-26" value=": https://localhost:8080" style="text;html=1;align=center;verticalAlign=middle;whiteSpace=wrap;rounded=0;fontSize=14;fontStyle=1" vertex="1" parent="1">
          <mxGeometry x="280" y="120" width="170" height="30" as="geometry" />
        </mxCell>
        <mxCell id="fayem-Z81CMUDDH44z70-32" value="docker compose" style="whiteSpace=wrap;html=1;fontStyle=1;fontSize=16;fillColor=default;strokeColor=none;" vertex="1" parent="1">
          <mxGeometry x="340" y="160" width="150" height="50" as="geometry" />
        </mxCell>
      </root>
    </mxGraphModel>
  </diagram>
</mxfile>
